Coordinates
version=1
nRows=6
nColumns=63
inDegrees=yes

Units are S.I. units (second, meters, Newtons, ...)
If the header above contains a line with 'inDegrees', this indicates whether rotational values are in degrees (yes) or radians (no).

endheader
time	pelvis_tilt	pelvis_list	pelvis_rotation	pelvis_tx	pelvis_ty	pelvis_tz	hip_flexion_r	hip_adduction_r	hip_rotation_r	knee_angle_r	knee_angle_r_beta	ankle_angle_r	subtalar_angle_r	mtp_angle_r	hip_flexion_l	hip_adduction_l	hip_rotation_l	knee_angle_l	knee_angle_l_beta	ankle_angle_l	subtalar_angle_l	mtp_angle_l	L5_S1_Flex_Ext	L5_S1_Lat_Bending	L5_S1_axial_rotation	L4_L5_Flex_Ext	L4_L5_Lat_Bending	L4_L5_axial_rotation	L3_L4_Flex_Ext	L3_L4_Lat_Bending	L3_L4_axial_rotation	L2_L3_Flex_Ext	L2_L3_Lat_Bending	L2_L3_axial_rotation	L1_L2_Flex_Ext	L1_L2_Lat_Bending	L1_L2_axial_rotation	L1_T12_Flex_Ext	L1_T12_Lat_Bending	L1_T12_axial_rotation	Abs_r3	Abs_r2	Abs_r1	Abs_t1	Abs_t2	neck_flexion	neck_bending	neck_rotation	arm_flex_r	arm_add_r	arm_rot_r	elbow_flex_r	pro_sup_r	wrist_flex_r	wrist_dev_r	arm_flex_l	arm_add_l	arm_rot_l	elbow_flex_l	pro_sup_l	wrist_flex_l	wrist_dev_l
      3.08333333	     -1.02416764	    -13.69035688	     93.25250054	      0.23607883	      0.82931223	      0.28511250	     45.02315556	     -3.86690425	      0.16939480	     68.08118703	      1.18824087	     45.70109830	    -10.90479764	      0.00000000	     47.40762377	      1.54771849	     -5.10339775	     69.23947301	      1.20845678	     47.45526476	     -5.28779114	      0.00000000	      0.00348302	     -0.39874466	      0.37773879	      0.00646831	     -0.53033039	      0.40134746	      0.00572225	     -0.96950776	      0.40134746	      0.00398074	     -0.96950776	      0.33052144	      0.00323433	     -0.81312010	      0.30691277	      0.00199020	     -0.61765547	      0.28330409	      0.02487886	     -4.51067929	      2.10086982	      0.00000000	      0.00000000	     15.73303235	      2.03133578	      1.48944928	     16.13928791	    -10.57838212	     76.64509874	     25.93379626	     88.73576499	    -25.53613635	     -0.91138041	      8.18814865	    -11.52222119	     37.59149170	     41.06967654	     88.48045777	    -11.54800666	      3.03948048
      3.10000000	     -0.53820238	    -13.48982360	     93.49607271	      0.23418050	      0.83954228	      0.28199017	     43.16947935	     -3.77339049	     -0.62340145	     65.50335385	      1.14324920	     44.45352494	    -11.23898740	      0.00000000	     45.77166711	      1.45848237	     -4.71747781	     66.99830172	      1.16934096	     45.83593038	     -5.67867639	      0.00000000	      0.00731769	     -0.29414388	      0.28502637	      0.01358968	     -0.39121136	      0.30284051	      0.01202223	     -0.71518144	      0.30284051	      0.00836339	     -0.71518144	      0.24939807	      0.00679521	     -0.59981821	      0.23158392	      0.00418133	     -0.45562887	      0.21376978	      0.05226952	     -3.32741443	      1.58523114	      0.00000000	      0.00000000	     15.75105699	      1.93204379	      4.30205379	     15.85668105	    -10.51543208	     76.49231922	     24.57754107	     88.27288165	    -24.32785651	      0.47981698	      8.38345231	    -11.06237099	     39.58173205	     38.64618524	     88.59912230	    -13.20219399	      0.92494464
      3.11666667	      0.22552672	    -13.25598101	     93.96203050	      0.23169141	      0.85008981	      0.27849725	     41.10272161	     -3.57829503	     -1.81934427	     62.64929369	      1.09343645	     42.91424432	    -11.60287717	      0.00000000	     44.12216656	      1.22590391	     -4.11475327	     64.76238882	      1.13031692	     44.33697454	     -5.93949916	      0.00000000	      0.00675476	     -0.14219359	      0.14192231	      0.01254426	     -0.18911747	      0.15079246	      0.01109739	     -0.34572949	      0.15079246	      0.00772001	     -0.34572949	      0.12418202	      0.00627247	     -0.28996117	      0.11531188	      0.00385967	     -0.22025787	      0.10644173	      0.04824856	     -1.60852232	      0.78932932	      0.00000000	      0.00000000	     15.63770840	      1.80952195	      8.14164074	     15.14547756	    -10.86663938	     73.75972264	     23.76074585	     87.13452222	    -22.70167932	      0.86281506	      8.69570959	    -10.29570566	     41.99033419	     35.81425118	     88.62652137	    -14.56860165	     -0.44696780
      3.13333333	      1.28007582	    -13.11334797	     94.80875849	      0.22881022	      0.86080110	      0.27428703	     38.89827610	     -3.23726118	     -3.41694440	     59.46673130	      1.03789026	     41.39781005	    -11.92239241	      0.00000000	     42.53251941	      0.85670434	     -3.22281247	     62.41422380	      1.08933371	     43.06989129	     -5.81050716	      0.00000000	      0.03467903	      0.03957308	     -0.05547254	      0.06440243	      0.05263220	     -0.05893957	      0.05697419	      0.09621800	     -0.05893957	      0.03963467	      0.09621800	     -0.04853847	      0.03220295	      0.08069743	     -0.04507144	      0.01981560	      0.06129871	     -0.04160440	      0.24770887	      0.44765865	     -0.30852161	      0.00000000	      0.00000000	     15.26321575	      1.37189282	     11.44215274	     13.70272349	    -11.52614413	     67.95364609	     23.71665974	     85.74967510	    -21.05730094	      0.36881598	      9.06834722	     -9.24403061	     44.98201951	     32.59806773	     88.44985436	    -15.69171561	     -0.76235069
      3.15000000	      1.78091429	    -13.04366728	     95.37108937	      0.22701485	      0.87185647	      0.26985822	     36.81096224	     -3.11509014	     -4.53221308	     56.28099359	      0.98228864	     39.90867502	    -12.11582075	      0.00000000	     40.77169369	      0.69662717	     -2.89546474	     59.69499759	      1.04187425	     41.77030737	     -5.54147476	      0.00000000	      0.06242862	      0.14574630	     -0.27409715	      0.11593619	      0.19384257	     -0.29122822	      0.10256398	      0.35436754	     -0.29122822	      0.07134967	      0.35436754	     -0.23983501	      0.05797122	      0.29720585	     -0.22270393	      0.03567171	      0.22576101	     -0.20557286	      0.44592139	      1.64871125	     -1.52444612	      0.00000000	      0.00000000	     15.01260959	      1.51346425	     15.03121986	     12.68559781	    -11.64634729	     64.32511781	     23.15482233	     81.74732895	    -19.74540211	     -1.66231677	      9.10697203	     -8.44093118	     46.81225775	     29.75299888	     88.18407517	    -15.32711477	     -0.00969933
      3.16666667	      1.82658230	    -12.94873611	     95.74274171	      0.22633072	      0.88340702	      0.26515561	     34.66469875	     -3.18541939	     -5.29900109	     53.01803472	      0.92533927	     38.48905929	    -12.15380584	      0.00000000	     38.73501862	      0.74611062	     -2.97076843	     56.61692000	      0.98815167	     40.36605010	     -5.23912901	      0.00000000	      0.08116199	      0.17543928	     -0.51395350	      0.15072593	      0.23333425	     -0.54607559	      0.13334103	      0.42656307	     -0.54607559	      0.09276003	      0.42656307	     -0.44970931	      0.07536702	      0.35775579	     -0.41758722	      0.04637596	      0.27175545	     -0.38546512	      0.57973195	      1.98460426	     -2.85845516	      0.00000000	      0.00000000	     14.91426622	      1.93876726	     17.57013668	     12.90838720	    -11.39478430	     68.72798967	     21.78105490	     69.46938448	    -19.28179920	     -5.68817786	      8.82359662	     -7.96208445	     47.51295829	     27.26353589	     87.51736899	    -14.09533603	      1.00195305
